<?xml version="1.0" encoding="UTF-8" standalone="no"?>
<!-- Created with Inkscape (http://www.inkscape.org/) -->

<svg
   xmlns:dc="http://purl.org/dc/elements/1.1/"
   xmlns:cc="http://creativecommons.org/ns#"
   xmlns:rdf="http://www.w3.org/1999/02/22-rdf-syntax-ns#"
   xmlns:svg="http://www.w3.org/2000/svg"
   xmlns="http://www.w3.org/2000/svg"
   xmlns:sodipodi="http://sodipodi.sourceforge.net/DTD/sodipodi-0.dtd"
   xmlns:inkscape="http://www.inkscape.org/namespaces/inkscape"
   version="1.1"
   id="svg4560"
   xml:space="preserve"
   width="800"
   height="800"
   viewBox="0 0 800 800"
   sodipodi:docname="15%-off-publicdomainvectors.org.svg"
   inkscape:version="0.92.4 (5da689c313, 2019-01-14)"><metadata
     id="metadata4566"><rdf:RDF><cc:Work
         rdf:about=""><dc:format>image/svg+xml</dc:format><dc:type
           rdf:resource="http://purl.org/dc/dcmitype/StillImage" /><dc:title></dc:title></cc:Work></rdf:RDF></metadata><defs
     id="defs4564"><clipPath
       clipPathUnits="userSpaceOnUse"
       id="clipPath4576"><path
         d="M 0,600 H 600 V 0 H 0 Z"
         id="path4574"
         inkscape:connector-curvature="0" /></clipPath></defs><sodipodi:namedview
     pagecolor="#ffffff"
     bordercolor="#666666"
     borderopacity="1"
     objecttolerance="10"
     gridtolerance="10"
     guidetolerance="10"
     inkscape:pageopacity="0"
     inkscape:pageshadow="2"
     inkscape:window-width="1920"
     inkscape:window-height="1018"
     id="namedview4562"
     showgrid="false"
     inkscape:zoom="0.849"
     inkscape:cx="500"
     inkscape:cy="381.35593"
     inkscape:window-x="-8"
     inkscape:window-y="-8"
     inkscape:window-maximized="1"
     inkscape:current-layer="g4568" /><g
     id="g4568"
     inkscape:groupmode="layer"
     inkscape:label="15%-off-publicdomainvectors.org"
     transform="matrix(1.3333333,0,0,-1.3333333,0,800)"><g
       id="g4570"><g
         id="g4572"
         clip-path="url(#clipPath4576)"><path
           d="m 96.453,349.57 c 0,-23.471 -15.968,-49.234 -9.07,-70.433 7.168,-21.958 35.504,-33.33 48.816,-51.632 13.486,-18.481 15.605,-48.873 34.107,-62.327 18.273,-13.313 47.791,-6.077 69.752,-13.248 21.223,-6.898 40.703,-30.367 64.234,-30.367 23.471,0 42.944,23.469 64.178,30.367 21.957,7.171 51.47,-0.065 69.772,13.248 18.478,13.454 20.655,43.846 34.085,62.327 13.302,18.302 41.673,29.674 48.814,51.632 6.891,21.199 -9.076,46.962 -9.076,70.433 0,23.504 15.967,49.269 9.076,70.472 -7.141,21.957 -35.512,33.329 -48.814,51.623 -13.43,18.454 -15.607,48.846 -34.085,62.301 -18.302,13.335 -47.815,6.109 -69.772,13.251 -21.234,6.923 -40.706,30.362 -64.178,30.362 -23.531,0 -43.011,-23.439 -64.234,-30.362 -21.961,-7.142 -51.479,0.084 -69.752,-13.251 -18.502,-13.455 -20.621,-43.847 -34.107,-62.301 -13.312,-18.294 -41.649,-29.666 -48.816,-51.623 -6.898,-21.203 9.07,-46.968 9.07,-70.472"
           style="fill:#00adef;fill-opacity:1;fill-rule:nonzero;stroke:none"
           id="path4578"
           inkscape:connector-curvature="0" /><path
           d="m 278.938,540.409 c -9.118,-6.038 -19.454,-12.881 -31.207,-16.715 l -0.02,-0.007 c -12.168,-3.957 -24.853,-4.583 -36.046,-5.134 -10.811,-0.533 -21.989,-1.084 -26.772,-4.574 -4.954,-3.604 -8.922,-14.111 -12.759,-24.276 -3.953,-10.474 -8.435,-22.344 -15.957,-32.638 -7.371,-10.128 -17.207,-17.959 -25.885,-24.868 -8.577,-6.826 -17.444,-13.885 -19.386,-19.834 -1.745,-5.363 1.274,-16.521 3.95,-26.361 2.972,-10.958 6.34,-23.377 6.34,-36.432 0,-13.039 -3.367,-25.447 -6.338,-36.399 -2.671,-9.839 -5.698,-20.993 -3.944,-26.379 1.934,-5.926 10.799,-12.984 19.373,-19.811 8.682,-6.911 18.521,-14.745 25.922,-24.921 7.493,-10.266 11.971,-22.135 15.923,-32.606 3.837,-10.172 7.806,-20.686 12.727,-24.265 4.793,-3.491 15.955,-4.043 26.752,-4.575 11.217,-0.552 23.931,-1.18 36.126,-5.162 11.749,-3.818 22.1,-10.676 31.234,-16.725 9.217,-6.106 18.747,-12.418 25.321,-12.418 6.523,0 16.033,6.3 25.229,12.395 9.144,6.059 19.504,12.927 31.301,16.76 12.161,3.97 24.876,4.598 36.094,5.15 10.803,0.532 21.974,1.084 26.772,4.573 4.923,3.585 8.905,14.132 12.755,24.332 3.942,10.438 8.41,22.27 15.869,32.532 7.401,10.184 17.247,18.02 25.935,24.934 8.572,6.822 17.434,13.874 19.363,19.802 1.749,5.385 -1.274,16.539 -3.949,26.378 -2.972,10.953 -6.341,23.364 -6.341,36.405 0,13.056 3.37,25.479 6.343,36.44 2.67,9.841 5.696,20.996 3.945,26.382 -1.927,5.926 -10.791,12.98 -19.365,19.801 -8.685,6.911 -18.529,14.744 -25.929,24.92 -7.46,10.252 -11.93,22.085 -15.873,32.525 -3.849,10.193 -7.832,20.733 -12.764,24.325 -4.811,3.506 -15.997,4.057 -26.815,4.59 -11.194,0.551 -23.881,1.177 -36.047,5.135 -11.789,3.843 -22.133,10.696 -31.261,16.743 -9.205,6.099 -18.725,12.404 -25.262,12.404 -6.587,0 -16.127,-6.317 -25.354,-12.426"
           style="fill:#ffffff;fill-opacity:1;fill-rule:nonzero;stroke:none"
           id="path4580"
           inkscape:connector-curvature="0" /><path
           d="m 131.303,349.57 c 0,-95.352 77.603,-172.927 172.989,-172.927 95.354,0 172.929,77.575 172.929,172.927 0,95.372 -77.575,172.962 -172.929,172.962 -95.386,0 -172.989,-77.59 -172.989,-172.962"
           style="fill:#00adef;fill-opacity:1;fill-rule:nonzero;stroke:none"
           id="path4582"
           inkscape:connector-curvature="0" /><path
           d="m 247.201,389.994 17.088,0.002 0.003,-16.083 -55.674,-0.009 -0.002,16.084 17.862,0.002 -0.007,34.453 c -6.796,-3.006 -12.104,-4.775 -15.927,-5.305 l -0.002,16.238 c 10.291,2.229 17.275,6.225 20.952,11.99 l 15.697,0.002 z"
           style="fill:#ffffff;fill-opacity:1;fill-rule:nonzero;stroke:none"
           id="path4584"
           inkscape:connector-curvature="0" /><path
           d="m 321.744,428.436 -30.214,-0.005 -0.847,-10.267 c 3.91,2.72 8.246,4.082 13.005,4.084 6.272,0 11.751,-2.154 16.44,-6.459 4.687,-4.308 7.032,-10.061 7.033,-17.263 10e-4,-7.591 -2.732,-13.772 -8.201,-18.538 -5.468,-4.767 -12.455,-7.151 -20.96,-7.152 -7.41,-0.001 -13.824,1.948 -19.241,5.849 -5.416,3.9 -8.742,9.347 -9.978,16.338 l 18.635,2.245 c 1.232,-5.206 4.592,-7.809 10.08,-7.808 2.779,0 4.951,0.845 6.518,2.536 1.564,1.688 2.347,3.749 2.347,6.177 -0.002,2.744 -0.897,4.892 -2.686,6.441 -1.79,1.548 -3.914,2.322 -6.369,2.322 -3.649,-10e-4 -6.458,-1.522 -8.422,-4.563 l -16.625,2.316 3.173,41.602 48.242,0.006 z"
           style="fill:#ffffff;fill-opacity:1;fill-rule:nonzero;stroke:none"
           id="path4586"
           inkscape:connector-curvature="0" /><path
           d="m 388.905,381.279 c 2.529,0 3.791,3.529 3.79,10.59 -10e-4,3.211 -0.232,5.832 -0.695,7.861 -0.464,2.03 -1.462,3.045 -2.991,3.045 -2.493,0 -3.738,-3.391 -3.737,-10.167 0,-4.306 0.259,-7.271 0.776,-8.894 0.515,-1.624 1.469,-2.435 2.857,-2.435 m -0.09,-7.888 c -4.46,-0.001 -8.007,1.701 -10.644,5.108 -2.637,3.405 -3.956,7.931 -3.956,13.579 -10e-4,5.752 1.343,10.288 4.032,13.606 2.689,3.318 6.28,4.977 10.775,4.978 4.351,0.002 7.882,-1.649 10.59,-4.949 2.707,-3.299 4.062,-7.949 4.064,-13.948 0,-5.612 -1.363,-10.077 -4.085,-13.395 -2.726,-3.318 -6.318,-4.977 -10.776,-4.979 m -41.09,44.068 c 2.501,10e-4 3.753,3.539 3.751,10.617 -10e-4,3.219 -0.239,5.838 -0.715,7.855 -0.476,2.017 -1.472,3.026 -2.987,3.024 -2.431,0 -3.645,-3.415 -3.644,-10.245 0,-4.21 0.256,-7.137 0.767,-8.783 0.51,-1.645 1.453,-2.468 2.828,-2.468 m 47.436,28.85 -43.884,-72.382 -9.999,-0.002 44.152,72.382 z m -47.462,-36.737 c -4.486,0 -8.046,1.704 -10.677,5.115 -2.632,3.41 -3.948,7.941 -3.949,13.598 -0.002,5.76 1.349,10.294 4.051,13.599 2.701,3.305 6.295,4.958 10.782,4.958 4.662,0.001 8.266,-1.757 10.81,-5.272 2.544,-3.518 3.816,-8.05 3.817,-13.598 0.002,-5.656 -1.359,-10.136 -4.077,-13.44 -2.721,-3.306 -6.306,-4.959 -10.757,-4.96"
           style="fill:#ffffff;fill-opacity:1;fill-rule:nonzero;stroke:none"
           id="path4588"
           inkscape:connector-curvature="0" /><path
           d="m 239.209,267.26 c 3.744,0 6.436,1.631 8.079,4.892 1.641,3.259 2.462,9.222 2.461,17.893 -0.003,12.543 -3.377,18.816 -10.123,18.815 -7.275,-0.001 -10.913,-7.154 -10.91,-21.462 0.003,-13.425 3.5,-20.139 10.493,-20.138 m 0.109,-16.469 c -10.173,-0.001 -18.463,3.368 -24.875,10.115 -6.412,6.743 -9.617,15.766 -9.619,27.069 -0.002,10.807 3.06,19.734 9.187,26.782 6.127,7.046 14.628,10.572 25.506,10.573 10.066,0.002 18.27,-3.318 24.611,-9.956 6.34,-6.64 9.512,-15.502 9.513,-26.592 0.003,-11.478 -3.192,-20.68 -9.584,-27.604 -6.391,-6.924 -14.639,-10.386 -24.739,-10.387"
           style="fill:#ffffff;fill-opacity:1;fill-rule:nonzero;stroke:none"
           id="path4590"
           inkscape:connector-curvature="0" /><path
           d="m 328.253,278.95 -23.507,-0.004 0.005,-27.062 -21.651,-0.003 -0.012,72.374 52.272,0.009 0.004,-17.243 -30.621,-0.005 0.001,-11.83 23.507,0.003 z"
           style="fill:#ffffff;fill-opacity:1;fill-rule:nonzero;stroke:none"
           id="path4592"
           inkscape:connector-curvature="0" /><path
           d="m 387.636,278.96 -23.506,-0.003 0.005,-27.063 -21.652,-0.003 -0.011,72.374 52.27,0.008 0.004,-17.244 -30.62,-0.005 0.001,-11.829 23.507,0.004 z"
           style="fill:#ffffff;fill-opacity:1;fill-rule:nonzero;stroke:none"
           id="path4594"
           inkscape:connector-curvature="0" /></g></g></g></svg>